<?xml version="1.0" encoding="UTF-8"?>
<svg version="1.1" xmlns="http://www.w3.org/2000/svg" width="500" height="500">
<path d="M0 0 C0.66 0 1.32 0 2 0 C13.09500186 15.65870952 16.13236173 33.29067362 13.73193359 52.10058594 C10.77799051 68.01928911 1.13293447 83.22216023 -11.8125 92.75 C-28.32693696 103.53131445 -45.02078154 108.30191546 -64.625 104.75 C-81.99269069 100.92981549 -97.44483504 91.74818036 -107.3671875 76.703125 C-112.17816411 68.73854171 -115.80723238 61.29536146 -117 52 C-116.01 51.34 -115.02 50.68 -114 50 C-113.01 53.3 -112.02 56.6 -111 60 C-107.93873161 56.93873161 -105.91079362 54.88982986 -104 51 C-104.22684317 49.0331037 -104.52601049 47.07393438 -104.875 45.125 C-105.30078125 41.9921875 -105.30078125 41.9921875 -105 39 C-102.12578404 35.57607061 -98.82082456 33.28309376 -95 31 C-89.57717954 34.20439391 -86.24924969 37.50210086 -84.0625 43.625 C-82.68146947 46.71200942 -80.72067111 48.06689158 -78 50 C-79.51548638 54.09181322 -82.38945289 56.69940195 -86 59 C-88.31347872 59.73260159 -90.645752 60.411438 -93 61 C-93.66 61.66 -94.32 62.32 -95 63 C-97.8342208 63.82395156 -100.68877456 64.46623608 -103.56640625 65.12109375 C-104.36949219 65.41113281 -105.17257813 65.70117188 -106 66 C-107.36791446 68.94773297 -107.36791446 68.94773297 -105.84765625 71.41796875 C-95.75348992 87.0782837 -82.82746706 95.96182775 -64.71875 100.58203125 C-46.98972674 103.30761385 -29.8766349 100.02306097 -15 90 C-9.81721735 86.05357391 -4.48574265 81.55925517 -1 76 C-0.74936268 72.33285151 -0.74936268 72.33285151 -1 69 C-6.56717533 71.35456323 -6.56717533 71.35456323 -12 74 C-11.95875 72.80375 -11.9175 71.6075 -11.875 70.375 C-11.88854611 66.56177015 -12.30250188 63.47987114 -14 60 C-16.03243548 59.03122943 -16.03243548 59.03122943 -18 59 C-18.226875 59.639375 -18.45375 60.27875 -18.6875 60.9375 C-19.120625 61.618125 -19.55375 62.29875 -20 63 C-21.66666667 63.33333333 -23.33333333 63.66666667 -25 64 C-25.29003906 64.63164062 -25.58007812 65.26328125 -25.87890625 65.9140625 C-27.33803926 68.62896504 -28.57005096 68.88622447 -31.4375 69.875 C-36.03188944 71.73028604 -36.93073506 73.48524013 -39 78 C-41.229651 79.62348111 -43.52803781 80.74154652 -46 82 C-46.66 82.66 -47.32 83.32 -48 84 C-50.71454956 84.32752234 -53.25230759 84.1308425 -56 84 C-57.63012838 82.36987162 -57.20976456 80.55562555 -57.25 78.3125 C-57.21742817 73.71335711 -56.16622524 71.07250344 -54 67 C-53.46643708 64.01105957 -53.19516401 61.02840705 -53 58 C-53.62648437 57.69707031 -54.25296875 57.39414062 -54.8984375 57.08203125 C-61.56948551 53.66232998 -61.56948551 53.66232998 -63.625 50.5 C-64.21944377 46.53704152 -63.44926306 43.99310782 -61.8125 40.375 C-60 38 -60 38 -57 36.5625 C-53.2995876 34.63520187 -52.52006266 32.80015665 -51 29 C-49.35 29.33 -47.7 29.66 -46 30 C-46.99 25.545 -46.99 25.545 -48 21 C-46.68 20.67 -45.36 20.34 -44 20 C-44 19.01 -44 18.02 -44 17 C-42.515 17.495 -42.515 17.495 -41 18 C-41 20.64 -41 23.28 -41 26 C-39.35 25.01 -37.7 24.02 -36 23 C-36.495 22.01 -36.495 22.01 -37 21 C-35.75054114 17.22133352 -33.78370374 15.94702288 -30.3125 14.1875 C-27.0532907 12.68901296 -24.93016161 11.99408149 -21.3125 11.6875 C-17.12530334 13.34657792 -15.36905412 15.68294684 -12.7734375 19.28515625 C-11.08332886 21.27819656 -11.08332886 21.27819656 -8.2890625 21.24609375 C-7.53367187 21.16488281 -6.77828125 21.08367187 -6 21 C-6 21.66 -6 22.32 -6 23 C-4.68 23 -3.36 23 -2 23 C-2.99 21.02 -2.99 21.02 -4 19 C-1.25 16.9375 -1.25 16.9375 2 15 C4.203125 15.37890625 4.203125 15.37890625 6 16 C5.48308594 15.01257813 4.96617187 14.02515625 4.43359375 13.0078125 C3.76781134 11.71375655 3.10246946 10.41947388 2.4375 9.125 C2.09525391 8.47402344 1.75300781 7.82304687 1.40039062 7.15234375 C0.53917109 5.46470143 -0.23686703 3.73420407 -1 2 C-0.67 1.34 -0.34 0.68 0 0 Z M-1 19 C-1 20.32 -1 21.64 -1 23 C1.41880929 25.26877535 1.41880929 25.26877535 4 27 C4.28875 26.360625 4.5775 25.72125 4.875 25.0625 C6 23 6 23 8 22 C7.67 20.68 7.34 19.36 7 18 C2.85906302 17.79029441 2.85906302 17.79029441 -1 19 Z M-31 51 C-30 54 -30 54 -30 54 Z M-22 54 C-21.67 55.32 -21.34 56.64 -21 58 C-20.34 57.67 -19.68 57.34 -19 57 C-19.99 56.01 -20.98 55.02 -22 54 Z M-30 57 C-29 61 -29 61 -29 61 Z " fill="#FDFDFD" transform="translate(296,213)"/>
<path d="M0 0 C3.89456281 -0.78619212 7.1325891 -1.00802194 11 0 C13.86867614 2.91685238 15.76978346 5.7057734 17.9296875 9.1796875 C20.17822007 12.24278281 21.47844692 12.86014466 25 14 C25.87482701 16.15342034 26 17.69010775 26 20 C27.17714976 22.20850096 27.17714976 22.20850096 29 24 C30.91800824 24.26454934 30.91800824 24.26454934 33.0625 23.75 C38.20758916 23.01716831 43.24869384 22.80171739 48.4375 22.75 C49.6277478 22.7185791 49.6277478 22.7185791 50.84204102 22.68652344 C56.59837193 22.64952506 56.59837193 22.64952506 58.74243164 24.52050781 C59.1574292 25.00874023 59.57242676 25.49697266 60 26 C51.30800101 32.1355287 41.58536904 35.16977498 31 36 C30.7834375 37.423125 30.7834375 37.423125 30.5625 38.875 C30 42 30 42 29 44 C29.66 44 30.32 44 31 44 C30.67 45.98 30.34 47.96 30 50 C29.01 50 28.02 50 27 50 C26.82984375 50.556875 26.6596875 51.11375 26.484375 51.6875 C22.06986382 65.58851391 22.06986382 65.58851391 18.29296875 68.1640625 C15.45096539 69.4444598 13.11733025 70 10 70 C10.71140089 67.15439644 11.42365471 64.30905135 12.140625 61.46484375 C12.70991641 59.1695643 13.26225088 56.87000723 13.796875 54.56640625 C14.04953125 53.49261719 14.3021875 52.41882813 14.5625 51.3125 C14.79066406 50.31863281 15.01882813 49.32476562 15.25390625 48.30078125 C15.50011719 47.54152344 15.74632812 46.78226563 16 46 C16.66 45.67 17.32 45.34 18 45 C18.65772428 41.97065509 18.65772428 41.97065509 19 39 C14.6538638 39.23187529 10.31476196 39.51394579 5.97509766 39.84228516 C4.49977097 39.94685626 3.02341366 40.03783465 1.54638672 40.11474609 C-6.8234616 40.13873351 -6.8234616 40.13873351 -13.74511719 43.85742188 C-14.80356196 45.9803145 -14.80356196 45.9803145 -15.3125 48.17382812 C-16 50 -16 50 -17.75 50.96679688 C-19.75 51.5 -19.75 51.5 -23 52 C-22.34 49.03 -21.68 46.06 -21 43 C-31.3548837 32.18489925 -46.69209751 24.26865817 -61.86328125 23.9375 C-62.92095703 23.9684375 -62.92095703 23.9684375 -64 24 C-61.69 24.33 -59.38 24.66 -57 25 C-57 25.99 -57 26.98 -57 28 C-55.02 28.495 -55.02 28.495 -53 29 C-53 30.32 -53 31.64 -53 33 C-51.35 33.33 -49.7 33.66 -48 34 C-51.75 37 -51.75 37 -54 37 C-54.33 38.65 -54.66 40.3 -55 42 C-55.57443848 42.17128418 -56.14887695 42.34256836 -56.74072266 42.51904297 C-59.36911062 43.30337554 -61.99705763 44.08917579 -64.625 44.875 C-65.52863281 45.14441406 -66.43226563 45.41382813 -67.36328125 45.69140625 C-71.933983 47.0592805 -76.48512004 48.45504108 -81 50 C-81.21542215 45.47613492 -80.42019486 42.26058457 -79 38 C-78.41557037 34.87237733 -78.41557037 34.87237733 -79 32 C-81.37402417 30.19212694 -81.37402417 30.19212694 -84 29 C-84.495 28.01 -84.495 28.01 -85 27 C-85.99 27.33 -86.98 27.66 -88 28 C-87.50618279 31.37441763 -86.86101936 34.43157147 -85.8125 37.6875 C-85.544375 38.780625 -85.27625 39.87375 -85 41 C-85.66 41.99 -86.32 42.98 -87 44 C-88.32 43.67 -89.64 43.34 -91 43 C-91.98120464 39.94736336 -91.98120464 38.05263664 -91 35 C-92.32 35 -93.64 35 -95 35 C-96.78969026 37.42672567 -96.78969026 37.42672567 -98 40 C-98.86625 39.4740625 -98.86625 39.4740625 -99.75 38.9375 C-102.24020355 37.63716826 -102.24020355 37.63716826 -106 39 C-103.525 43.455 -103.525 43.455 -101 48 C-98.1490712 44.4472136 -98.1490712 44.4472136 -97 42 C-95.68 42.33 -94.36 42.66 -93 43 C-92.505 44.98 -92.505 44.98 -92 47 C-90.68 47.33 -89.36 47.66 -88 48 C-87.4921875 50.18359375 -87.4921875 50.18359375 -88 53 C-90.45887604 55.11161794 -93.27296734 56.54501223 -96.125 58.0625 C-97.64928441 58.90602349 -99.17273712 59.75105183 -100.6953125 60.59765625 C-101.4265332 60.99871582 -102.15775391 61.39977539 -102.91113281 61.81298828 C-105.71269466 63.40499316 -108.35066599 65.16747344 -111 67 C-111 66.01 -111 65.02 -111 64 C-114.465 63.505 -114.465 63.505 -118 63 C-118.33 64.65 -118.66 66.3 -119 68 C-117.68 68 -116.36 68 -115 68 C-115.8125 69.9375 -115.8125 69.9375 -117 72 C-118.485 72.495 -118.485 72.495 -120 73 C-121.65 71.35 -123.3 69.7 -125 68 C-127.10318312 72.72125339 -127.69310348 77.26317403 -128.33984375 82.35546875 C-129 85 -129 85 -132 87 C-133.02487435 71.19985371 -127.49491629 55.34859224 -117.24291992 43.20751953 C-108.04085472 32.98227271 -97.17240037 26.12504117 -84 22 C-83.2678125 21.75507813 -82.535625 21.51015625 -81.78125 21.2578125 C-66.31555593 16.91552147 -48.87612086 20.123719 -34.9375 27.3125 C-34.22271484 27.67915771 -33.50792969 28.04581543 -32.77148438 28.42358398 C-28.06549914 31.00282589 -25.26288721 33.75525315 -22 38 C-21.34 38.33 -20.68 38.66 -20 39 C-20.433125 38.37351563 -20.86625 37.74703125 -21.3125 37.1015625 C-21.869375 36.28429687 -22.42625 35.46703125 -23 34.625 C-23.556875 33.81289062 -24.11375 33.00078125 -24.6875 32.1640625 C-26 30 -26 30 -26 28 C-22.8125 27.625 -22.8125 27.625 -19 28 C-18.195625 29.010625 -17.39125 30.02125 -16.5625 31.0625 C-15.2940625 32.5165625 -15.2940625 32.5165625 -14 34 C-7.28732653 33.75617985 -0.93382066 31.75703852 5.5 29.9375 C6.51320313 29.65583984 7.52640625 29.37417969 8.5703125 29.08398438 C11.04832734 28.39434817 13.52478 27.69958811 16 27 C14.73917557 23.44872542 14.73917557 23.44872542 12.5 20.5 C11 19 11 19 10.1953125 16.828125 C8.70391333 13.29945507 6.59860403 10.34219936 4.375 7.25 C0 1.11694785 0 1.11694785 0 0 Z " fill="#FDFDFD" transform="translate(310,166)"/>
<path d="M0 0 C-0.33 1.32 -0.66 2.64 -1 4 C-1.98097656 3.52949219 -2.96195313 3.05898437 -3.97265625 2.57421875 C-26.06259987 -7.73368546 -51.72281996 -10.34211077 -75 -2 C-83.99201839 1.39790557 -92.15841183 5.4327093 -100 11 C-100.85335937 11.60585937 -101.70671875 12.21171875 -102.5859375 12.8359375 C-119.77618934 25.79474274 -131.50267974 46.75061196 -135.53125 67.8046875 C-139.05566979 94.33128642 -133.48888814 119.2275582 -117.8359375 141.01171875 C-102.73667129 160.13923443 -81.51059211 172.01304434 -57.44921875 175.6484375 C-31.51246726 178.2920475 -7.74892093 172.1570315 13.125 156.25 C30.9662397 141.3489966 42.85768062 121.12184263 46 98 C46.54931328 91.67662663 46.80390092 85.3427909 47 79 C48.32 79 49.64 79 51 79 C51.93421687 107.26871046 43.44881099 130.59110525 24.57421875 151.71484375 C8.04155369 169.17823662 -15.31651574 180.41027552 -39.53125 181.203125 C-67.23564544 181.63956791 -92.50671395 172.93748758 -112.75488281 153.59716797 C-130.39921298 136.21280129 -140.90587927 112.6958816 -141.24145508 87.88037109 C-141.32686294 58.4659024 -131.19609488 34.37507286 -110.6171875 13.59375 C-82.7767687 -12.3507263 -32.9703781 -21.98025206 0 0 Z " fill="#FDFDFD" transform="translate(289,164)"/>
<path d="M0 0 C-4.72323463 1.73672201 -9.49968315 2.81641771 -14.40063477 3.90185547 C-42.02789707 10.09795988 -67.34787926 21.63466441 -89 40 C-89.64839844 40.51304687 -90.29679687 41.02609375 -90.96484375 41.5546875 C-100.20164977 48.96926648 -107.80103812 59.05389978 -109.40625 71.03125 C-109.56924654 76.08414287 -109.4698106 80.06754798 -106 84 C-104.05887115 85.77319404 -102.07958743 87.38254311 -100 89 C-101.485 89.495 -101.485 89.495 -103 90 C-108.73286165 86.76875071 -112.10475752 83.3810235 -114 77 C-115.46440233 68.0475198 -112.78272846 59.27792585 -107.90625 51.78125 C-105.67842346 48.78111026 -103.38732038 45.87444646 -101 43 C-100.20851562 42.00097656 -99.41703125 41.00195312 -98.6015625 39.97265625 C-95.90364649 36.88990237 -93.03679263 34.31276224 -89.8125 31.8125 C-89.21155518 31.34618164 -88.61061035 30.87986328 -87.99145508 30.39941406 C-66.90693865 14.39779605 -41.47513283 3.00591028 -15 0 C-13.50146484 -0.18175781 -13.50146484 -0.18175781 -11.97265625 -0.3671875 C-3.98744849 -1.22761724 -3.98744849 -1.22761724 0 0 Z " fill="#FCFCFC" transform="translate(283,207)"/>
<path d="M0 0 C-3.61328125 4.6875 -3.61328125 4.6875 -5 6 C-5.99 6 -6.98 6 -8 6 C-7.49396008 3.83125748 -7.00016187 2.00032373 -6 0 C-2.49056604 -1.24528302 -2.49056604 -1.24528302 0 0 Z " fill="#FBFDFC" transform="translate(264,291)"/>
<path d="M0 0 C1.98 0 3.96 0 6 0 C6 0.99 6 1.98 6 3 C4.02 3 2.04 3 0 3 C0 2.01 0 1.02 0 0 Z " fill="#FCFDFD" transform="translate(247,220)"/>
</svg>
